HIERARCHY
ROOT Hips
{
	OFFSET 0.000000 83.214638 0.000000
	CHANNELS 6 Xposition Yposition Zposition Xrotation Yrotation Zrotation
	JOINT Pelvis
	{
		OFFSET 0.000000 0.000000 0.000000
		CHANNELS 3 Xrotation Yrotation Zrotation
		JOINT LeftUpLeg
		{
			OFFSET 8.479700 -4.795502 -0.379100
			CHANNELS 3 Xrotation Yrotation Zrotation
			JOINT LeftLeg
			{
				OFFSET 0.024144 -32.555107 0.112900
				CHANNELS 3 Xrotation Yrotation Zrotation
				JOINT LeftFoot
				{
					OFFSET -0.024144 -32.638630 -3.012600
					CHANNELS 3 Xrotation Yrotation Zrotation
					JOINT LeftToeBase
					{
						OFFSET 0.970200 -13.225400 11.864200
						CHANNELS 3 Xrotation Yrotation Zrotation
						End Site
						{
							OFFSET 0.000000 12.319262 0.000000
						}
					}
					JOINT LFootTongue
					{
						OFFSET 1.142400 -1.059800 6.665200
						CHANNELS 3 Xrotation Yrotation Zrotation
						End Site
						{
							OFFSET 0.000000 12.319262 0.000000
						}
					}
				}
				JOINT LeftPantLeg
				{
					OFFSET 0.918482 -16.533964 -2.284700
					CHANNELS 3 Xrotation Yrotation Zrotation
					End Site
					{
						OFFSET 0.350399 24.744368 0.000000
					}
				}
			}
		}
		JOINT RightUpLeg
		{
			OFFSET -8.479700 -4.795502 -0.379100
			CHANNELS 3 Xrotation Yrotation Zrotation
			JOINT RightLeg
			{
				OFFSET -0.023144 -32.555092 0.112900
				CHANNELS 3 Xrotation Yrotation Zrotation
				JOINT RightFoot
				{
					OFFSET 0.023144 -32.638641 -3.012700
					CHANNELS 3 Xrotation Yrotation Zrotation
					JOINT RightToeBase
					{
						OFFSET -0.970200 -13.225400 11.864200
						CHANNELS 3 Xrotation Yrotation Zrotation
						End Site
						{
							OFFSET 0.000000 12.319244 0.000000
						}
					}
					JOINT RFootTongue
					{
						OFFSET -1.142200 -1.059800 6.665200
						CHANNELS 3 Xrotation Yrotation Zrotation
						End Site
						{
							OFFSET 0.000000 12.319243 0.000000
						}
					}
				}
				JOINT RightPantLeg
				{
					OFFSET -0.919482 -16.533978 -2.284800
					CHANNELS 3 Xrotation Yrotation Zrotation
					End Site
					{
						OFFSET -0.350400 24.744419 0.000000
					}
				}
			}
		}
	}
	JOINT Spine
	{
		OFFSET 0.000000 7.722000 1.166200
		CHANNELS 3 Xrotation Yrotation Zrotation
		JOINT Spine1
		{
			OFFSET 0.000000 12.024101 0.248800
			CHANNELS 3 Xrotation Yrotation Zrotation
			JOINT Spine2
			{
				OFFSET 0.000000 11.502998 -0.491200
				CHANNELS 3 Xrotation Yrotation Zrotation
				JOINT Neck
				{
					OFFSET 0.000000 18.430702 -3.123100
					CHANNELS 3 Xrotation Yrotation Zrotation
					JOINT Head
					{
						OFFSET 0.000000 9.051102 1.034000
						CHANNELS 3 Xrotation Yrotation Zrotation
						JOINT HairB
						{
							OFFSET 0.208400 24.786102 24.822300
							CHANNELS 3 Xrotation Yrotation Zrotation
							End Site
							{
								OFFSET 0.000000 32.263779 0.000000
							}
						}
						JOINT HairA
						{
							OFFSET -7.081100 24.428299 23.196600
							CHANNELS 3 Xrotation Yrotation Zrotation
							End Site
							{
								OFFSET 0.000000 32.263779 0.000000
							}
						}
						JOINT Hat
						{
							OFFSET 16.728800 15.048294 -15.439601
							CHANNELS 3 Xrotation Yrotation Zrotation
							End Site
							{
								OFFSET 0.000000 32.263779 0.000000
							}
						}
					}
				}
				JOINT LeftShoulder
				{
					OFFSET 6.197800 13.665199 -4.064700
					CHANNELS 3 Xrotation Yrotation Zrotation
					JOINT LeftArm
					{
						OFFSET 7.778100 -0.187103 -1.709300
						CHANNELS 3 Xrotation Yrotation Zrotation
						JOINT LeftForeArm
						{
							OFFSET 22.049376 0.000000 0.000000
							CHANNELS 3 Xrotation Yrotation Zrotation
							JOINT LeftHand
							{
								OFFSET 23.009392 0.000000 0.000000
								CHANNELS 3 Xrotation Yrotation Zrotation
								JOINT LeftHandThumb1
								{
									OFFSET 3.507191 -2.063065 3.133727
									CHANNELS 3 Xrotation Yrotation Zrotation
									JOINT LeftHandThumb2
									{
										OFFSET 3.101337 -1.790558 1.790558
										CHANNELS 3 Xrotation Yrotation Zrotation
										JOINT LeftHandThumb3
										{
											OFFSET 3.058640 -1.765907 1.765906
											CHANNELS 3 Xrotation Yrotation Zrotation
											End Site
											{
												OFFSET -0.415260 3.926476 -0.049563
											}
										}
									}
								}
								JOINT LeftHandIndex1
								{
									OFFSET 11.334419 -0.901459 3.706815
									CHANNELS 3 Xrotation Yrotation Zrotation
									JOINT LeftHandIndex2
									{
										OFFSET 3.283112 0.000000 0.000000
										CHANNELS 3 Xrotation Yrotation Zrotation
										JOINT LeftHandIndex3
										{
											OFFSET 3.323853 0.000000 0.000000
											CHANNELS 3 Xrotation Yrotation Zrotation
											End Site
											{
												OFFSET -1.135597 3.097809 0.402452
											}
										}
									}
								}
								JOINT LeftHandMiddle1
								{
									OFFSET 11.335861 0.000000 0.000000
									CHANNELS 3 Xrotation Yrotation Zrotation
									JOINT LeftHandMiddle2
									{
										OFFSET 3.410492 0.000000 0.000000
										CHANNELS 3 Xrotation Yrotation Zrotation
										JOINT LeftHandMiddle3
										{
											OFFSET 3.312172 0.000000 0.000000
											CHANNELS 3 Xrotation Yrotation Zrotation
											End Site
											{
												OFFSET -1.150200 3.080154 0.400270
											}
										}
									}
								}
								JOINT LeftHandRing1
								{
									OFFSET 11.514786 -0.013176 -3.003090
									CHANNELS 3 Xrotation Yrotation Zrotation
									JOINT LeftHandRing2
									{
										OFFSET 3.053307 0.000000 0.000000
										CHANNELS 3 Xrotation Yrotation Zrotation
										JOINT LeftHandRing3
										{
											OFFSET 3.295807 0.000000 0.000000
											CHANNELS 3 Xrotation Yrotation Zrotation
											End Site
											{
												OFFSET -1.281006 3.013344 0.375733
											}
										}
									}
								}
								JOINT LeftHandPinky1
								{
									OFFSET 10.518692 -0.960396 -5.730441
									CHANNELS 3 Xrotation Yrotation Zrotation
									JOINT LeftHandPinky2
									{
										OFFSET 2.861649 0.000000 0.000000
										CHANNELS 3 Xrotation Yrotation Zrotation
										JOINT LeftHandPinky3
										{
											OFFSET 2.863380 0.000000 0.000000
											CHANNELS 3 Xrotation Yrotation Zrotation
											End Site
											{
												OFFSET -0.843597 2.711159 0.369971
											}
										}
									}
								}
							}
							JOINT LSleeve
							{
								OFFSET 6.676277 -0.344902 -1.011730
								CHANNELS 3 Xrotation Yrotation Zrotation
								End Site
								{
									OFFSET 0.000000 14.885353 0.000000
								}
							}
						}
					}
				}
				JOINT RightShoulder
				{
					OFFSET -6.197800 13.665199 -4.064700
					CHANNELS 3 Xrotation Yrotation Zrotation
					JOINT RightArm
					{
						OFFSET -7.778100 -0.187103 -1.709300
						CHANNELS 3 Xrotation Yrotation Zrotation
						JOINT RightForeArm
						{
							OFFSET -22.049376 0.000000 0.000000
							CHANNELS 3 Xrotation Yrotation Zrotation
							JOINT RightHand
							{
								OFFSET -23.009392 0.000000 0.000000
								CHANNELS 3 Xrotation Yrotation Zrotation
								JOINT RightHandThumb1
								{
									OFFSET -3.507191 -2.063065 3.133727
									CHANNELS 3 Xrotation Yrotation Zrotation
									JOINT RightHandThumb2
									{
										OFFSET -3.101337 -1.790558 1.790558
										CHANNELS 3 Xrotation Yrotation Zrotation
										JOINT RightHandThumb3
										{
											OFFSET -3.058640 -1.765907 1.765906
											CHANNELS 3 Xrotation Yrotation Zrotation
											End Site
											{
												OFFSET 0.415260 3.926476 -0.049563
											}
										}
									}
								}
								JOINT RightHandIndex1
								{
									OFFSET -11.334419 -0.901459 3.706815
									CHANNELS 3 Xrotation Yrotation Zrotation
									JOINT RightHandIndex2
									{
										OFFSET -3.283112 0.000000 0.000000
										CHANNELS 3 Xrotation Yrotation Zrotation
										JOINT RightHandIndex3
										{
											OFFSET -3.323853 0.000000 0.000000
											CHANNELS 3 Xrotation Yrotation Zrotation
											End Site
											{
												OFFSET 1.135597 3.097809 0.402452
											}
										}
									}
								}
								JOINT RightHandMiddle1
								{
									OFFSET -11.335861 0.000000 0.000000
									CHANNELS 3 Xrotation Yrotation Zrotation
									JOINT RightHandMiddle2
									{
										OFFSET -3.410492 0.000000 0.000000
										CHANNELS 3 Xrotation Yrotation Zrotation
										JOINT RightHandMiddle3
										{
											OFFSET -3.312172 0.000000 0.000000
											CHANNELS 3 Xrotation Yrotation Zrotation
											End Site
											{
												OFFSET 1.150200 3.080154 0.400270
											}
										}
									}
								}
								JOINT RightHandRing1
								{
									OFFSET -11.514786 -0.013176 -3.003090
									CHANNELS 3 Xrotation Yrotation Zrotation
									JOINT RightHandRing2
									{
										OFFSET -3.053307 0.000000 0.000000
										CHANNELS 3 Xrotation Yrotation Zrotation
										JOINT RightHandRing3
										{
											OFFSET -3.295807 0.000000 0.000000
											CHANNELS 3 Xrotation Yrotation Zrotation
											End Site
											{
												OFFSET 1.281006 3.013344 0.375733
											}
										}
									}
								}
								JOINT RightHandPinky1
								{
									OFFSET -10.518692 -0.960396 -5.730441
									CHANNELS 3 Xrotation Yrotation Zrotation
									JOINT RightHandPinky2
									{
										OFFSET -2.861649 0.000000 0.000000
										CHANNELS 3 Xrotation Yrotation Zrotation
										JOINT RightHandPinky3
										{
											OFFSET -2.863380 0.000000 0.000000
											CHANNELS 3 Xrotation Yrotation Zrotation
											End Site
											{
												OFFSET 0.843597 2.711159 0.369971
											}
										}
									}
								}
							}
							JOINT RSleeve
							{
								OFFSET -6.676277 -0.344902 -1.011730
								CHANNELS 3 Xrotation Yrotation Zrotation
								End Site
								{
									OFFSET 0.000000 14.885353 0.000000
								}
							}
						}
					}
				}
				JOINT Backpack
				{
					OFFSET 0.000000 -2.471497 36.677502
					CHANNELS 3 Xrotation Yrotation Zrotation
					End Site
					{
						OFFSET 0.000000 20.427315 0.000000
					}
				}
				JOINT Hood
				{
					OFFSET 0.000000 18.754097 -10.431000
					CHANNELS 3 Xrotation Yrotation Zrotation
					JOINT Hood1
					{
						OFFSET 0.000000 -5.011002 -7.685901
						CHANNELS 3 Xrotation Yrotation Zrotation
						End Site
						{
							OFFSET 0.000000 9.175140 0.000000
						}
					}
				}
				JOINT LHoodieString
				{
					OFFSET 5.250500 16.397697 3.089900
					CHANNELS 3 Xrotation Yrotation Zrotation
					JOINT LHoodieString1
					{
						OFFSET 0.257700 -6.364304 3.694600
						CHANNELS 3 Xrotation Yrotation Zrotation
						JOINT LHoodieString2
						{
							OFFSET 0.000000 -9.643799 2.679100
							CHANNELS 3 Xrotation Yrotation Zrotation
							End Site
							{
								OFFSET 0.000000 10.009018 0.000000
							}
						}
					}
				}
				JOINT RHoodieString
				{
					OFFSET -5.250500 16.397697 3.089900
					CHANNELS 3 Xrotation Yrotation Zrotation
					JOINT RHoodieString1
					{
						OFFSET -0.257700 -6.364304 3.694600
						CHANNELS 3 Xrotation Yrotation Zrotation
						JOINT RHoodieString2
						{
							OFFSET 0.000000 -9.643799 2.679100
							CHANNELS 3 Xrotation Yrotation Zrotation
							End Site
							{
								OFFSET 0.000000 10.009018 0.000000
							}
						}
					}
				}
			}
			JOINT LBackpack_Strap
			{
				OFFSET 15.223200 -7.719803 -6.610900
				CHANNELS 3 Xrotation Yrotation Zrotation
				End Site
				{
					OFFSET 0.000000 16.040596 0.000000
				}
			}
			JOINT RBackpack_Strap
			{
				OFFSET -15.223000 -7.719803 -6.610900
				CHANNELS 3 Xrotation Yrotation Zrotation
				End Site
				{
					OFFSET 0.000000 16.040596 0.000000
				}
			}
		}
	}
	JOINT BoyFacialAnim_Joint
	{
		OFFSET 1.000000 -82.208099 -1.550900
		CHANNELS 3 Xrotation Yrotation Zrotation
		End Site
		{
			OFFSET 0.000000 30.012791 0.000000
		}
	}
}
MOTION
Frames: 4
Frame Time: 0.033333
-0.119079 80.994003 0.494622 -2.386531 0.062516 -2.410636 -0.000000 -0.000000 -0.000000 -30.127951 3.708348 6.393630 60.154261 1.534695 0.551719 -0.859045 0.466833 -7.886977 -0.000001 0.000001 -0.000001 -0.000001 0.000001 -0.000001 0.000002 0.000000 0.000000 -9.265784 -4.974855 6.739522 26.721549 6.923694 1.132280 -11.960741 1.691619 -10.010195 -0.000000 0.000000 -0.000000 -0.000000 0.000000 -0.000000 -0.000001 -0.000000 0.000001 14.311572 1.164181 2.879749 -4.344024 0.844258 -0.932464 -4.329081 0.772028 -1.030093 -0.100621 -1.689915 2.622509 -5.840191 -0.460693 -1.540024 -0.000000 0.000000 0.000000 -0.000000 0.000000 0.000000 -0.000000 0.000000 0.000000 2.370580 2.599461 -1.341543 -3.622013 -8.176795 -74.042188 12.004580 -10.521261 -9.011674 -0.378849 1.905079 11.578299 -4.982866 13.405868 11.311713 3.517323 8.486189 1.851544 -0.000000 -0.000000 -0.000002 0.376719 -6.145587 -25.285024 -0.034536 0.056861 -22.183833 -0.000003 0.000000 -0.000000 -0.682843 -5.541191 -29.068363 -0.000903 0.003754 -24.675204 0.000001 -0.000001 0.000000 -1.915537 -6.193609 -34.198617 0.001240 0.005468 -28.105337 0.000002 -0.000000 -0.000000 -3.466252 -6.910122 -39.124632 -0.009187 0.002721 -31.381625 0.000000 0.000002 0.000002 -0.000000 0.000001 -0.000001 3.460710 0.236092 4.393009 -1.475149 25.830802 70.377436 6.809959 19.852131 4.731734 -19.537876 0.955189 -12.166187 -0.782972 -20.555751 -5.075680 4.541201 -11.071013 -2.314942 -0.000000 0.000001 -0.000001 0.748695 1.485546 23.202832 -0.036701 -0.055016 19.908378 -0.000003 -0.000000 0.000003 -0.268025 2.185021 25.525085 -0.000266 0.002707 21.457801 0.000002 -0.000000 0.000001 -1.284805 3.638228 29.547863 0.000923 -0.004728 24.164388 -0.000003 0.000000 0.000002 -2.714539 5.335796 33.797484 0.001085 -0.005454 26.995402 -0.000004 -0.000003 -0.000002 0.000000 -0.000001 -0.000000 0.000000 -0.000000 -0.000000 0.000000 -0.000000 -0.000000 0.000000 -0.000000 -0.000000 0.000000 -0.000000 -0.000000 0.000000 -0.000000 0.000000 0.000000 0.000000 -0.000000 0.000000 -0.000000 -0.000000 0.000000 -0.000000 0.000000 0.000000 0.000000 -0.000000 0.000001 0.000000 -0.000000 0.000001 0.000000 -0.000000 -0.000000 -0.000000 -0.000000 
-0.319581 81.109756 3.479722 -2.638419 -0.109751 -2.244479 -0.000000 0.000000 -0.000000 -30.932270 5.306450 6.732902 51.025420 1.410767 0.609153 -5.004046 0.835798 -8.163027 -0.000000 -0.000001 -0.000000 -0.000000 -0.000001 -0.000000 0.000000 -0.000000 -0.000000 -6.446534 -4.625081 6.694344 26.320465 6.130332 1.306392 -12.475850 2.765119 -10.392685 0.000000 -0.000000 -0.000000 0.000000 -0.000000 -0.000000 0.000001 0.000001 0.000001 13.868373 1.381365 3.060287 -4.130025 1.402576 -1.418433 -4.271884 1.146429 -1.586312 -0.172173 -2.173111 2.366996 -5.799666 -1.384638 -0.742133 0.000000 0.000000 -0.000000 0.000000 0.000000 -0.000000 0.000000 0.000000 -0.000000 2.155794 -0.156986 -0.326812 0.223858 -6.493650 -74.550818 12.826281 -13.543003 -7.660421 -1.208694 1.195398 11.518938 -4.982873 13.405867 11.311782 3.517349 8.486190 1.851522 -0.000001 0.000002 -0.000002 0.376715 -6.145561 -25.285026 -0.034533 0.056867 -22.183857 -0.000003 -0.000003 -0.000006 -0.682844 -5.541188 -29.068346 -0.000896 0.003765 -24.675230 0.000000 -0.000001 0.000000 -1.915519 -6.193606 -34.198600 0.001230 0.005469 -28.105334 -0.000003 0.000001 0.000001 -3.466239 -6.910108 -39.124614 -0.009211 0.002719 -31.381584 -0.000002 0.000003 0.000002 -0.000000 0.000001 -0.000000 3.138011 0.967564 4.781088 -2.573236 23.525624 70.199414 5.776143 24.563867 2.738594 -19.680712 -0.304315 -11.704801 -0.794226 -20.752843 -5.067656 4.499578 -11.060745 -2.374622 0.000000 0.000001 -0.000001 0.693349 1.558374 23.548045 -0.036633 -0.055132 20.008693 -0.000004 -0.000003 0.000003 -0.214646 2.210479 25.523536 -0.000310 0.002757 21.444280 0.000002 0.000000 0.000001 -1.298506 3.890747 29.545855 0.000966 -0.004260 24.095270 -0.000001 0.000001 0.000006 -2.703187 5.638798 33.792969 0.000964 -0.005289 26.950482 -0.000000 -0.000002 0.000002 -0.000001 0.000001 -0.000002 0.000000 -0.000000 -0.000000 0.000000 -0.000000 -0.000000 0.000000 -0.000000 -0.000000 0.000000 -0.000000 -0.000000 0.000000 -0.000000 0.000000 0.000000 -0.000000 -0.000000 0.000000 -0.000000 -0.000000 0.000000 -0.000000 0.000000 0.000000 -0.000000 -0.000000 0.000000 -0.000000 0.000000 0.000000 -0.000000 0.000000 -0.000000 0.000000 -0.000000 
-0.437948 80.949768 6.462812 -2.774077 0.073829 -2.241703 -0.000000 0.000000 0.000000 -30.715245 7.568021 6.710830 39.905913 0.459725 0.634497 -7.887539 0.923669 -6.985190 -0.000000 0.000001 -0.000000 -0.000000 0.000001 0.000000 -0.000000 -0.000000 0.000000 -4.454775 -5.474908 6.103341 27.305937 7.698719 2.264574 -13.070243 1.988441 -11.041732 0.000000 0.000000 0.000000 0.000000 0.000000 0.000000 0.000003 0.000000 0.000001 13.719211 1.667378 4.187455 -4.186454 1.790614 -2.348847 -4.488399 1.393680 -2.565355 -0.548848 -2.743622 2.037088 -5.123020 -2.252825 0.344483 0.000000 0.000000 0.000000 0.000000 0.000000 0.000000 0.000000 0.000000 0.000000 2.174037 -3.083189 1.934113 3.157329 -4.839315 -76.100451 11.474092 -14.358366 -7.806523 0.184715 -0.502175 12.139462 -4.982828 13.405862 11.311693 3.517316 8.486199 1.851529 0.000000 0.000001 0.000002 0.376692 -6.145581 -25.285108 -0.034536 0.056890 -22.183840 -0.000000 -0.000001 -0.000004 -0.682856 -5.541181 -29.068421 -0.000869 0.003725 -24.675209 0.000001 0.000001 0.000000 -1.915518 -6.193621 -34.198644 0.001217 0.005477 -28.105363 0.000001 0.000001 -0.000004 -3.466232 -6.910129 -39.124679 -0.009231 0.002743 -31.381646 -0.000001 -0.000000 -0.000000 0.000000 0.000000 -0.000000 2.397102 1.166798 4.689809 -3.867759 21.436438 70.429885 7.304641 28.102632 0.407262 -21.748016 -0.480815 -11.315033 -0.810194 -21.026225 -5.057012 4.443888 -11.039963 -2.462194 0.000002 0.000001 -0.000004 0.615118 1.658277 24.026913 -0.036471 -0.055233 20.147846 0.000001 0.000002 0.000002 -0.140767 2.245706 25.521403 -0.000419 0.002861 21.425579 0.000001 0.000000 0.000003 -1.317529 4.240420 29.542552 0.001027 -0.003622 23.999393 -0.000001 0.000002 0.000006 -2.687656 6.058957 33.785439 0.000848 -0.005001 26.888211 -0.000003 -0.000000 -0.000002 0.000001 -0.000003 -0.000000 -0.000000 0.000000 -0.000000 -0.000000 0.000000 -0.000000 -0.000000 0.000000 -0.000000 -0.000000 0.000000 -0.000000 -0.000000 0.000000 -0.000000 -0.000000 0.000000 -0.000000 -0.000000 0.000000 -0.000000 -0.000000 0.000000 -0.000000 -0.000000 0.000000 -0.000000 -0.000000 -0.000000 -0.000000 -0.000000 -0.000000 -0.000000 -0.000000 0.000000 0.000000 
-0.437281 80.551300 9.534393 -2.754600 0.219706 -2.443574 0.000000 -0.000000 -0.000000 -30.839151 8.835007 6.409702 31.020090 -3.662236 0.518180 -12.684746 0.847401 -6.212027 -0.000000 -0.000001 -0.000000 -0.000000 -0.000001 -0.000000 -0.000000 -0.000001 0.000000 -2.714064 -7.505206 5.471945 28.958038 9.102715 2.686585 -13.955349 2.002779 -10.685454 0.000000 -0.000000 0.000000 0.000000 -0.000000 0.000000 0.000001 0.000000 0.000001 12.729876 1.548021 5.012693 -3.853962 2.527206 -2.932455 -4.391885 1.690600 -3.274910 0.740194 -3.463519 2.956678 -6.007378 -2.787373 0.255450 -0.000000 -0.000000 -0.000000 -0.000000 -0.000000 -0.000000 -0.000000 -0.000000 -0.000000 2.986555 -8.263243 3.544507 5.903814 -0.837652 -78.143361 11.477618 -17.069881 -6.356024 0.037725 -0.351634 12.322554 -4.982886 13.405862 11.311721 3.517337 8.486180 1.851517 0.000002 0.000000 -0.000002 0.376708 -6.145580 -25.285050 -0.034544 0.056893 -22.183845 0.000001 -0.000000 -0.000002 -0.682886 -5.541192 -29.068384 -0.000835 0.003743 -24.675233 0.000003 0.000000 0.000002 -1.915551 -6.193616 -34.198621 0.001237 0.005497 -28.105344 -0.000000 0.000002 -0.000004 -3.466259 -6.910109 -39.124638 -0.009238 0.002767 -31.381608 -0.000001 0.000000 -0.000000 0.000001 -0.000000 0.000000 1.882733 1.130550 4.616162 -5.568153 19.650910 70.544584 11.892814 31.174254 -3.347567 -26.211013 -0.277752 -11.012033 -0.802334 -20.892659 -5.062117 4.479520 -11.045467 -2.422738 -0.000000 0.000002 -0.000001 0.653731 1.609620 23.793022 -0.036548 -0.055188 20.079860 -0.000003 0.000002 0.000000 -0.176411 2.228714 25.522474 0.000099 -0.000613 21.434734 0.000002 -0.000002 0.000001 -1.308130 4.071468 29.544270 0.001042 -0.003937 24.046229 -0.000003 -0.000001 0.000002 -2.695226 5.853409 33.789332 0.000873 -0.005096 26.918689 0.000000 -0.000001 0.000003 0.000004 -0.000001 -0.000000 -0.000000 0.000000 -0.000000 -0.000000 0.000000 -0.000000 -0.000000 0.000000 -0.000000 -0.000000 0.000000 -0.000000 -0.000000 0.000000 -0.000000 0.000000 -0.000000 -0.000000 -0.000000 0.000000 -0.000000 -0.000000 0.000000 -0.000000 0.000000 -0.000000 -0.000000 -0.000000 -0.000000 0.000000 -0.000000 -0.000000 0.000000 0.000000 -0.000000 -0.000000 
